<svg id="SvgjsSvg1186" width="1068.75" height="661.203125" xmlns="http://www.w3.org/2000/svg" version="1.1" xmlns:xlink="http://www.w3.org/1999/xlink" xmlns:svgjs="http://svgjs.com/svgjs"><defs id="SvgjsDefs1187"></defs><g id="SvgjsG1188" transform="translate(25,25.203125)"><path id="SvgjsPath1189" d="M 0 4Q 0 0 4 0L 351.625 0Q 355.625 0 355.625 4L 355.625 607.25Q 355.625 611.25 351.625 611.25L 4 611.25Q 0 611.25 0 607.25Z" stroke="#323232" stroke-width="2" fill-opacity="1" fill="#e6ffcc"></path><g id="SvgjsG1190"><text id="SvgjsText1191" font-family="微软雅黑" text-anchor="middle" font-size="13px" width="0" fill="#323232" font-weight="400" align="middle" anchor="middle" family="微软雅黑" size="13px" weight="400" font-style="" y="295.675" transform="rotate(0)"></text></g></g><g id="SvgjsG1192" transform="translate(97.5,48.26416015625)"><path id="SvgjsPath1193" d="M 0 0L 160 0L 160 40L 0 40Z" stroke="none" fill="none"></path><g id="SvgjsG1194"><text id="SvgjsText1195" font-family="微软雅黑" text-anchor="middle" font-size="20px" width="60" fill="#323232" font-weight="700" align="middle" anchor="middle" family="微软雅黑" size="20px" weight="700" font-style="" y="4.5" transform="rotate(0)"><tspan id="SvgjsTspan1196" dy="25" x="80"><tspan id="SvgjsTspan1197" style="text-decoration:;">客户端</tspan></tspan></text></g></g><g id="SvgjsG1198" transform="translate(97.5,108.203125)"><path id="SvgjsPath1199" d="M 0 0L 160 0L 160 40L 0 40Z" stroke="none" fill="none"></path><g id="SvgjsG1200"><text id="SvgjsText1201" font-family="微软雅黑" text-anchor="middle" font-size="15px" width="128" fill="#323232" font-weight="700" align="middle" anchor="middle" family="微软雅黑" size="15px" weight="700" font-style="" y="8.25" transform="rotate(0)"><tspan id="SvgjsTspan1202" dy="18" x="80"><tspan id="SvgjsTspan1203" style="text-decoration:;">初始化状态：close</tspan></tspan></text></g></g><g id="SvgjsG1204" transform="translate(155.25,156.203125)"><path id="SvgjsPath1205" d="M 14.685 0L 29.815 0L 29.815 86.75L 44.5 86.75L 22.25 109L 0 86.75L 14.685 86.75L 14.685 0Z" stroke="#323232" stroke-width="2" fill-opacity="1" fill="#ff9999"></path><g id="SvgjsG1206"><text id="SvgjsText1207" font-family="微软雅黑" text-anchor="middle" font-size="13px" width="0" fill="#323232" font-weight="400" align="middle" anchor="middle" family="微软雅黑" size="13px" weight="400" font-style="" y="39.099999999999994" transform="rotate(0)"></text></g></g><g id="SvgjsG1208" transform="translate(242.75,160.0159912109375)"><path id="SvgjsPath1209" d="M 0 4Q 0 0 4 0L 96 0Q 100 0 100 4L 100 66Q 100 70 96 70L 4 70Q 0 70 0 66Z" stroke="#323232" stroke-width="2" fill-opacity="1" fill="#ffe6cc"></path><g id="SvgjsG1210"><text id="SvgjsText1211" font-family="微软雅黑" text-anchor="middle" font-size="15px" width="61" fill="#323232" font-weight="700" align="middle" anchor="middle" family="微软雅黑" size="15px" weight="700" font-style="" y="13.75" transform="rotate(0)"><tspan id="SvgjsTspan1212" dy="18" x="50"><tspan id="SvgjsTspan1213" style="text-decoration:;">创建连接</tspan></tspan><tspan id="SvgjsTspan1214" dy="18" x="50"><tspan id="SvgjsTspan1215" style="text-decoration:;">发送SYN</tspan></tspan></text></g></g><g id="SvgjsG1216" transform="translate(97.5,285.203125)"><path id="SvgjsPath1217" d="M 0 0L 180.5 0L 180.5 38L 0 38Z" stroke="none" fill="none"></path><g id="SvgjsG1218"><text id="SvgjsText1219" font-family="微软雅黑" text-anchor="middle" font-size="15px" width="178" fill="#323232" font-weight="700" align="middle" anchor="middle" family="微软雅黑" size="15px" weight="700" font-style="" y="7.25" transform="rotate(0)"><tspan id="SvgjsTspan1220" dy="18" x="90.5"><tspan id="SvgjsTspan1221" style="text-decoration:;">发送等待状态：SYN_send</tspan></tspan></text></g></g><g id="SvgjsG1222" transform="translate(155.25,328.203125)"><path id="SvgjsPath1223" d="M 14.685 0L 29.815 0L 29.815 86.75L 44.5 86.75L 22.25 109L 0 86.75L 14.685 86.75L 14.685 0Z" stroke="#323232" stroke-width="2" fill-opacity="1" fill="#ff9999"></path><g id="SvgjsG1224"><text id="SvgjsText1225" font-family="微软雅黑" text-anchor="middle" font-size="13px" width="0" fill="#323232" font-weight="400" align="middle" anchor="middle" family="微软雅黑" size="13px" weight="400" font-style="" y="39.099999999999994" transform="rotate(0)"></text></g></g><g id="SvgjsG1226" transform="translate(231,336.703125)"><path id="SvgjsPath1227" d="M 0 4Q 0 0 4 0L 129.5 0Q 133.5 0 133.5 4L 133.5 64.5Q 133.5 68.5 129.5 68.5L 4 68.5Q 0 68.5 0 64.5Z" stroke="#323232" stroke-width="2" fill-opacity="1" fill="#ffe6cc"></path><g id="SvgjsG1228"><text id="SvgjsText1229" font-family="微软雅黑" text-anchor="start" font-size="15px" width="107" fill="#323232" font-weight="700" align="middle" anchor="start" family="微软雅黑" size="15px" weight="700" font-style="" y="13" transform="rotate(0)"><tspan id="SvgjsTspan1230" dy="18" x="10"><tspan id="SvgjsTspan1231" style="text-decoration:;">等待ACK的确认</tspan></tspan><tspan id="SvgjsTspan1232" dy="18" x="10"><tspan id="SvgjsTspan1233" style="text-decoration:;">发送SYN</tspan></tspan></text></g></g><g id="SvgjsG1234" transform="translate(87.25,446.203125)"><path id="SvgjsPath1235" d="M 0 0L 196.75 0L 196.75 32L 0 32Z" stroke="none" fill="none"></path><g id="SvgjsG1236"><text id="SvgjsText1237" font-family="微软雅黑" text-anchor="middle" font-size="15px" width="186" fill="#323232" font-weight="700" align="middle" anchor="middle" family="微软雅黑" size="15px" weight="700" font-style="" y="4.25" transform="rotate(0)"><tspan id="SvgjsTspan1238" dy="18" x="98.5"><tspan id="SvgjsTspan1239" style="text-decoration:;">确认连接状态：established</tspan></tspan></text></g></g><g id="SvgjsG1240" transform="translate(118.625,491.203125)"><path id="SvgjsPath1241" d="M 0 4Q 0 0 4 0L 164.375 0Q 168.375 0 168.375 4L 168.375 55Q 168.375 59 164.375 59L 4 59Q 0 59 0 55Z" stroke="#323232" stroke-width="2" fill-opacity="1" fill="#ffe6cc"></path><g id="SvgjsG1242"><text id="SvgjsText1243" font-family="微软雅黑" text-anchor="start" font-size="15px" width="147" fill="#323232" font-weight="700" align="middle" anchor="start" family="微软雅黑" size="15px" weight="700" font-style="" y="-1.25" transform="rotate(0)"><tspan id="SvgjsTspan1244" dy="18" x="10"><tspan id="SvgjsTspan1245" style="text-decoration:;">接收SYN+ACK</tspan></tspan><tspan id="SvgjsTspan1246" dy="18" x="10"><tspan id="SvgjsTspan1247" style="text-decoration:;">发送ACK(1)+seq+ack</tspan></tspan><tspan id="SvgjsTspan1248" dy="18" x="10"><tspan id="SvgjsTspan1249" style="text-decoration:;">建立连接</tspan></tspan></text></g></g><g id="SvgjsG1250" transform="translate(704.75,25.0078125)"><path id="SvgjsPath1251" d="M 0 4Q 0 0 4 0L 334.75 0Q 338.75 0 338.75 4L 338.75 607.640625Q 338.75 611.640625 334.75 611.640625L 4 611.640625Q 0 611.640625 0 607.640625Z" stroke="#323232" stroke-width="2" fill-opacity="1" fill="#e6ffcc"></path><g id="SvgjsG1252"><text id="SvgjsText1253" font-family="微软雅黑" text-anchor="middle" font-size="13px" width="0" fill="#323232" font-weight="400" align="middle" anchor="middle" family="微软雅黑" size="13px" weight="400" font-style="" y="295.8703125" transform="rotate(0)"></text></g></g><g id="SvgjsG1254" transform="translate(840.234375,48.2672119140625)"><path id="SvgjsPath1255" d="M 0 0L 160 0L 160 40L 0 40Z" stroke="none" fill="none"></path><g id="SvgjsG1256"><text id="SvgjsText1257" font-family="微软雅黑" text-anchor="middle" font-size="20px" width="60" fill="#323232" font-weight="700" align="middle" anchor="middle" family="微软雅黑" size="20px" weight="700" font-style="" y="4.5" transform="rotate(0)"><tspan id="SvgjsTspan1258" dy="25" x="80"><tspan id="SvgjsTspan1259" style="text-decoration:;">服务端</tspan></tspan></text></g></g><g id="SvgjsG1260" transform="translate(845,108.0078125)"><path id="SvgjsPath1261" d="M 0 0L 160 0L 160 40L 0 40Z" stroke="none" fill="none"></path><g id="SvgjsG1262"><text id="SvgjsText1263" font-family="微软雅黑" text-anchor="middle" font-size="15px" width="128" fill="#323232" font-weight="700" align="middle" anchor="middle" family="微软雅黑" size="15px" weight="700" font-style="" y="8.25" transform="rotate(0)"><tspan id="SvgjsTspan1264" dy="18" x="80"><tspan id="SvgjsTspan1265" style="text-decoration:;">初始化状态：listen</tspan></tspan></text></g></g><g id="SvgjsG1266" transform="translate(902.75,156.0078125)"><path id="SvgjsPath1267" d="M 14.685 0L 29.815 0L 29.815 86.75L 44.5 86.75L 22.25 109L 0 86.75L 14.685 86.75L 14.685 0Z" stroke="#323232" stroke-width="2" fill-opacity="1" fill="#ff9999"></path><g id="SvgjsG1268"><text id="SvgjsText1269" font-family="微软雅黑" text-anchor="middle" font-size="13px" width="0" fill="#323232" font-weight="400" align="middle" anchor="middle" family="微软雅黑" size="13px" weight="400" font-style="" y="39.099999999999994" transform="rotate(0)"></text></g></g><g id="SvgjsG1270" transform="translate(754.625,160.25341796875)"><path id="SvgjsPath1271" d="M 0 4Q 0 0 4 0L 96 0Q 100 0 100 4L 100 66Q 100 70 96 70L 4 70Q 0 70 0 66Z" stroke="#323232" stroke-width="2" fill-opacity="1" fill="#ffe6cc"></path><g id="SvgjsG1272"><text id="SvgjsText1273" font-family="微软雅黑" text-anchor="middle" font-size="15px" width="75" fill="#323232" font-weight="700" align="middle" anchor="middle" family="微软雅黑" size="15px" weight="700" font-style="" y="13.75" transform="rotate(0)"><tspan id="SvgjsTspan1274" dy="18" x="50"><tspan id="SvgjsTspan1275" style="text-decoration:;">创建连接</tspan></tspan><tspan id="SvgjsTspan1276" dy="18" x="50"><tspan id="SvgjsTspan1277" style="text-decoration:;">等待客户端</tspan></tspan></text></g></g><g id="SvgjsG1278" transform="translate(845,285.0078125)"><path id="SvgjsPath1279" d="M 0 0L 180.5 0L 180.5 38L 0 38Z" stroke="none" fill="none"></path><g id="SvgjsG1280"><text id="SvgjsText1281" font-family="微软雅黑" text-anchor="middle" font-size="15px" width="105" fill="#323232" font-weight="700" align="middle" anchor="middle" family="微软雅黑" size="15px" weight="700" font-style="" y="-2.25" transform="rotate(0)"><tspan id="SvgjsTspan1282" dy="18" x="90.5"><tspan id="SvgjsTspan1283" style="text-decoration:;">确认接收状态：</tspan></tspan><tspan id="SvgjsTspan1284" dy="18" x="90.5"><tspan id="SvgjsTspan1285" style="text-decoration:;">SYN_receive</tspan></tspan></text></g></g><g id="SvgjsG1286" transform="translate(902.75,328.0078125)"><path id="SvgjsPath1287" d="M 14.685 0L 29.815 0L 29.815 86.75L 44.5 86.75L 22.25 109L 0 86.75L 14.685 86.75L 14.685 0Z" stroke="#323232" stroke-width="2" fill-opacity="1" fill="#ff9999"></path><g id="SvgjsG1288"><text id="SvgjsText1289" font-family="微软雅黑" text-anchor="middle" font-size="13px" width="0" fill="#323232" font-weight="400" align="middle" anchor="middle" family="微软雅黑" size="13px" weight="400" font-style="" y="39.099999999999994" transform="rotate(0)"></text></g></g><g id="SvgjsG1290" transform="translate(709.1875,334.0078125)"><path id="SvgjsPath1291" d="M 0 4Q 0 0 4 0L 177.5 0Q 181.5 0 181.5 4L 181.5 84.6953125Q 181.5 88.6953125 177.5 88.6953125L 4 88.6953125Q 0 88.6953125 0 84.6953125Z" stroke="#323232" stroke-width="2" fill-opacity="1" fill="#ffe6cc"></path><g id="SvgjsG1292"><text id="SvgjsText1293" font-family="微软雅黑" text-anchor="start" font-size="15px" width="130" fill="#323232" font-weight="700" align="middle" anchor="start" family="微软雅黑" size="15px" weight="700" font-style="" y="13.59765625" transform="rotate(0)"><tspan id="SvgjsTspan1294" dy="18" x="10"><tspan id="SvgjsTspan1295" style="text-decoration:;">接收SYN</tspan></tspan><tspan id="SvgjsTspan1296" dy="18" x="10"><tspan id="SvgjsTspan1297" style="text-decoration:;">发送SYN+seq+ack</tspan></tspan><tspan id="SvgjsTspan1298" dy="18" x="10"><tspan id="SvgjsTspan1299" style="text-decoration:;">等待确认ACK</tspan></tspan></text></g></g><g id="SvgjsG1300" transform="translate(834.75,446.0078125)"><path id="SvgjsPath1301" d="M 0 0L 196.75 0L 196.75 32L 0 32Z" stroke="none" fill="none"></path><g id="SvgjsG1302"><text id="SvgjsText1303" font-family="微软雅黑" text-anchor="middle" font-size="15px" width="186" fill="#323232" font-weight="700" align="middle" anchor="middle" family="微软雅黑" size="15px" weight="700" font-style="" y="4.25" transform="rotate(0)"><tspan id="SvgjsTspan1304" dy="18" x="98.5"><tspan id="SvgjsTspan1305" style="text-decoration:;">确认连接状态：established</tspan></tspan></text></g></g><g id="SvgjsG1306" transform="translate(866.125,491.0078125)"><path id="SvgjsPath1307" d="M 0 4Q 0 0 4 0L 164.375 0Q 168.375 0 168.375 4L 168.375 55Q 168.375 59 164.375 59L 4 59Q 0 59 0 55Z" stroke="#323232" stroke-width="2" fill-opacity="1" fill="#ffe6cc"></path><g id="SvgjsG1308"><text id="SvgjsText1309" font-family="微软雅黑" text-anchor="middle" font-size="15px" width="147" fill="#323232" font-weight="700" align="middle" anchor="middle" family="微软雅黑" size="15px" weight="700" font-style="" y="-1.25" transform="rotate(0)"><tspan id="SvgjsTspan1310" dy="18" x="84.5"><tspan id="SvgjsTspan1311" style="text-decoration:;">接收SYN+ACK</tspan></tspan><tspan id="SvgjsTspan1312" dy="18" x="84.5"><tspan id="SvgjsTspan1313" style="text-decoration:;">发送ACK(1)+seq+ack</tspan></tspan><tspan id="SvgjsTspan1314" dy="18" x="84.5"><tspan id="SvgjsTspan1315" style="text-decoration:;">建立连接</tspan></tspan></text></g></g><g id="SvgjsG1316" transform="matrix(0.34202014332566816,-0.9396926207859085,0.9396926207859085,0.34202014332566816,429.15582692195795,175.13400560536004)"><path id="SvgjsPath1317" d="M 10.212689375004912 0L 20.734854185616033 0L 20.734854185616033 240.5612016361074L 30.947543560620943 240.5612016361074L 15.473771780310472 256.03497341641787L 0 240.5612016361074L 10.212689375004912 240.5612016361074L 10.212689375004912 0Z" stroke="#323232" stroke-width="2" fill-opacity="1" fill="#ccffff"></path><g id="SvgjsG1318"><text id="SvgjsText1319" font-family="微软雅黑" text-anchor="middle" font-size="13px" width="0" fill="#323232" font-weight="400" align="middle" anchor="middle" family="微软雅黑" size="13px" weight="400" font-style="" y="105.26573803738803" transform="rotate(0)"></text></g></g><g id="SvgjsG1320" transform="matrix(0.34202014332566816,-0.9396926207859085,0.9396926207859085,0.34202014332566816,401.65582692195795,471.25566393055533)"><path id="SvgjsPath1321" d="M 10.212689375004912 0L 20.734854185616033 0L 20.734854185616033 240.5612016361074L 30.947543560620943 240.5612016361074L 15.473771780310472 256.03497341641787L 0 240.5612016361074L 10.212689375004912 240.5612016361074L 10.212689375004912 0Z" stroke="#323232" stroke-width="2" fill-opacity="1" fill="#ccffff"></path><g id="SvgjsG1322"><text id="SvgjsText1323" font-family="微软雅黑" text-anchor="middle" font-size="13px" width="0" fill="#323232" font-weight="400" align="middle" anchor="middle" family="微软雅黑" size="13px" weight="400" font-style="" y="105.26573803738803" transform="rotate(0)"></text></g></g><g id="SvgjsG1324" transform="matrix(0.3420201433256688,0.9396926207859083,-0.9396926207859083,0.3420201433256688,637.5625021044821,283.4347090038612)"><path id="SvgjsPath1325" d="M 10.212689375004912 0L 20.734854185616033 0L 20.734854185616033 240.5612016361074L 30.947543560620943 240.5612016361074L 15.473771780310472 256.03497341641787L 0 240.5612016361074L 10.212689375004912 240.5612016361074L 10.212689375004912 0Z" stroke="#323232" stroke-width="2" fill-opacity="1" fill="#ccffff"></path><g id="SvgjsG1326"><text id="SvgjsText1327" font-family="微软雅黑" text-anchor="middle" font-size="13px" width="0" fill="#323232" font-weight="400" align="middle" anchor="middle" family="微软雅黑" size="13px" weight="400" font-style="" y="105.26573803738803" transform="rotate(0)"></text></g></g><g id="SvgjsG1328" transform="translate(468.5,116.0078125)"><path id="SvgjsPath1329" d="M 0 0L 160 0L 160 40L 0 40Z" stroke="none" fill="none"></path><g id="SvgjsG1330"><text id="SvgjsText1331" font-family="微软雅黑" text-anchor="middle" font-size="15px" width="75" fill="#323232" font-weight="400" align="middle" anchor="middle" family="微软雅黑" size="15px" weight="400" font-style="" y="-10.75" transform="rotate(0)"><tspan id="SvgjsTspan1332" dy="18" x="80"><tspan id="SvgjsTspan1333" style="text-decoration:;font-weight: bold;">第一次握手</tspan></tspan><tspan id="SvgjsTspan1334" dy="18" x="80"><tspan id="SvgjsTspan1335" style="text-decoration:;font-weight: bold;">SYN=1</tspan></tspan><tspan id="SvgjsTspan1336" dy="18" x="80"><tspan id="SvgjsTspan1337" style="text-decoration:;font-weight: bold;">seq=x</tspan></tspan></text></g></g><g id="SvgjsG1338" transform="translate(463.5,247.2578125)"><path id="SvgjsPath1339" d="M 0 0L 160 0L 160 40L 0 40Z" stroke="none" fill="none"></path><g id="SvgjsG1340"><text id="SvgjsText1341" font-family="微软雅黑" text-anchor="middle" font-size="15px" width="75" fill="#323232" font-weight="700" align="middle" anchor="middle" family="微软雅黑" size="15px" weight="700" font-style="" y="-29.75" transform="rotate(0)"><tspan id="SvgjsTspan1342" dy="18" x="80"><tspan id="SvgjsTspan1343" style="text-decoration:;font-weight: bold;">第二</tspan><tspan id="SvgjsTspan1344" style="text-decoration:;font-size: inherit; font-weight: bold;">次握手</tspan></tspan><tspan id="SvgjsTspan1345" dy="18" x="80"><tspan id="SvgjsTspan1346" style="text-decoration:;font-weight: bold;">SYN=1</tspan></tspan><tspan id="SvgjsTspan1347" dy="18" x="80"><tspan id="SvgjsTspan1348" style="text-decoration:;font-weight: bold;">seq=y</tspan></tspan><tspan id="SvgjsTspan1349" dy="18" x="80"><tspan id="SvgjsTspan1350" style="text-decoration:;">ACK=1</tspan></tspan><tspan id="SvgjsTspan1351" dy="18" x="80"><tspan id="SvgjsTspan1352" style="text-decoration:;">ack=x+1</tspan></tspan></text></g></g><g id="SvgjsG1353" transform="translate(463.1875,411.0078125)"><path id="SvgjsPath1354" d="M 0 0L 160 0L 160 40L 0 40Z" stroke="none" fill="none"></path><g id="SvgjsG1355"><text id="SvgjsText1356" font-family="微软雅黑" text-anchor="middle" font-size="15px" width="75" fill="#323232" font-weight="700" align="middle" anchor="middle" family="微软雅黑" size="15px" weight="700" font-style="" y="-20.25" transform="rotate(0)"><tspan id="SvgjsTspan1357" dy="18" x="80"><tspan id="SvgjsTspan1358" style="text-decoration:;font-weight: bold;">第三</tspan><tspan id="SvgjsTspan1359" style="text-decoration:;font-size: inherit; font-weight: bold;">次握手</tspan></tspan><tspan id="SvgjsTspan1360" dy="18" x="80"><tspan id="SvgjsTspan1361" style="text-decoration:;font-weight: bold;">ACK=1</tspan></tspan><tspan id="SvgjsTspan1362" dy="18" x="80"><tspan id="SvgjsTspan1363" style="text-decoration:;font-weight: bold;">seq=x+1</tspan></tspan><tspan id="SvgjsTspan1364" dy="18" x="80"><tspan id="SvgjsTspan1365" style="text-decoration:;">ack=y+1</tspan></tspan></text></g></g></svg>